<svg width="22" height="14" viewBox="0 0 22 14" fill="none" xmlns="http://www.w3.org/2000/svg">
<path d="M20 7C20 7 15.9725 13 11 13C6.0275 13 2 7 2 7C2 7 6.0275 1 11 1C15.9725 1 20 7 20 7Z" stroke="#9C9C9C" stroke-width="2" stroke-miterlimit="10"/>
<path d="M13.4231 7.0003C12.3385 7.0003 11.4615 6.12338 11.4615 5.03876C11.4615 4.58184 11.6231 4.17107 11.8862 3.83415C11.6738 3.79261 11.4569 3.76953 11.2308 3.76953C9.44462 3.76953 8 5.21415 8 7.0003C8 8.78645 9.44462 10.2311 11.2308 10.2311C13.0169 10.2311 14.4615 8.78645 14.4615 7.0003C14.4615 6.89876 14.4569 6.80184 14.4477 6.70492C14.1477 6.88953 13.8015 7.0003 13.4231 7.0003Z" fill="#9C9C9C"/>
</svg>
