<svg width="40" height="40" viewBox="0 0 50 50" fill="none" xmlns="http://www.w3.org/2000/svg">
<circle cx="25" cy="25" r="25" fill="#D9D9D9"/>
<path d="M29.0099 19.7817C29.0099 21.8278 27.2603 23.5634 25.005 23.5634C22.7496 23.5634 21 21.8278 21 19.7817C21 17.7356 22.7496 16 25.005 16C27.2603 16 29.0099 17.7356 29.0099 19.7817Z" fill="#D9D9D9" stroke="white" stroke-width="2"/>
<mask id="path-3-inside-1_996_7646" fill="white">
<path d="M25 26.2188H26.5106C31.1998 26.2188 35 29.3902 35 33.3017V34.9998H25"/>
</mask>
<path d="M25 26.2188H26.5106C31.1998 26.2188 35 29.3902 35 33.3017V34.9998H25" fill="#D9D9D9"/>
<path d="M35 34.9998V36.9998H37V34.9998H35ZM25 28.2188H26.5106V24.2188H25V28.2188ZM26.5106 28.2188C30.4496 28.2188 33 30.8186 33 33.3017H37C37 27.9619 31.9501 24.2188 26.5106 24.2188V28.2188ZM33 33.3017V34.9998H37V33.3017H33ZM35 32.9998H25V36.9998H35V32.9998Z" fill="white" mask="url(#path-3-inside-1_996_7646)"/>
<mask id="path-5-inside-2_996_7646" fill="white">
<path d="M25 26.2188H23.4894C18.8002 26.2188 15 29.3902 15 33.3017V34.9998H25"/>
</mask>
<path d="M25 26.2188H23.4894C18.8002 26.2188 15 29.3902 15 33.3017V34.9998H25" fill="#D9D9D9"/>
<path d="M15 34.9998H13V36.9998H15V34.9998ZM25 24.2188H23.4894V28.2188H25V24.2188ZM23.4894 24.2188C18.0499 24.2188 13 27.9619 13 33.3017H17C17 30.8186 19.5504 28.2188 23.4894 28.2188V24.2188ZM13 33.3017V34.9998H17V33.3017H13ZM15 36.9998H25V32.9998H15V36.9998Z" fill="white" mask="url(#path-5-inside-2_996_7646)"/>
</svg>
