<svg width="22" height="19" viewBox="0 0 22 19" fill="none" xmlns="http://www.w3.org/2000/svg">
<path d="M20 9.44632C20 9.44632 17.822 12.5605 14.6945 14.2084C13.5695 14.802 12.3185 15.2051 11 15.2051C6.0275 15.2051 2 9.44632 2 9.44632C2 9.44632 3.485 7.32442 5.7665 5.65436C7.2425 4.57347 9.047 3.6875 11 3.6875C15.9725 3.6875 20 9.44632 20 9.44632Z" stroke="#9C9C9C" stroke-width="2" stroke-miterlimit="10"/>
<path d="M14.3654 9.24348C14.3654 9.14602 14.3609 9.053 14.3519 8.95997C14.0594 9.13716 13.7219 9.24348 13.3529 9.24348C12.2954 9.24348 11.4404 8.40181 11.4404 7.36079C11.4404 6.92223 11.5979 6.52798 11.8544 6.2046C11.6474 6.16473 11.4359 6.14258 11.2154 6.14258C10.2749 6.14258 9.43342 6.55013 8.85742 7.19246L13.3574 11.5116C13.9784 10.9445 14.3654 10.1383 14.3654 9.24348Z" fill="#9C9C9C"/>
<path d="M7.792 8C7.3015 8.54487 7 9.26251 7 10.051C7 11.7654 8.4085 13.1519 10.15 13.1519C10.978 13.1519 11.734 12.833 12.2965 12.3191L7.792 8Z" fill="#9C9C9C"/>
<path d="M2.41016 1L19.5642 17.4348" stroke="#9C9C9C" stroke-width="2" stroke-miterlimit="10" stroke-linecap="round"/>
</svg>
